inDegrees=no
num_controls=7
num_derivatives=13
num_iterations=123
num_multipliers=7
num_parameters=0
num_slacks=7
num_states=26
objective=5.550855
objective_accelerations=0.790820
objective_balance=0.039177
objective_effort=0.248929
objective_height=4.419743
objective_ligament=0.052186
solver_duration=1351.639475
status=Solve_Succeeded
success=true
DataType=double
version=3
OpenSimVersion=4.4-2022-07-23-0e9fedc
endheader
time	/jointset/ground_pelvis/pelvis_tilt/value	/jointset/ground_pelvis/pelvis_tx/value	/jointset/ground_pelvis/pelvis_ty/value	/jointset/hip_l/hip_flexion_l/value	/jointset/hip_l/hip_adduction_l/value	/jointset/hip_l/hip_rotation_l/value	/jointset/back/lumbar_extension/value	/jointset/patellofemoral_l/patellar_flexion_l/value	/jointset/knee_l/knee_flexion_l/value	/jointset/knee_l/knee_adduction_l/value	/jointset/knee_l/knee_rotation_l/value	/jointset/ankle_l/ankle_angle_l/value	/jointset/subtalar_l/subtalar_angle_l/value	/jointset/ground_pelvis/pelvis_tilt/speed	/jointset/ground_pelvis/pelvis_tx/speed	/jointset/ground_pelvis/pelvis_ty/speed	/jointset/hip_l/hip_flexion_l/speed	/jointset/hip_l/hip_adduction_l/speed	/jointset/hip_l/hip_rotation_l/speed	/jointset/back/lumbar_extension/speed	/jointset/patellofemoral_l/patellar_flexion_l/speed	/jointset/knee_l/knee_flexion_l/speed	/jointset/knee_l/knee_adduction_l/speed	/jointset/knee_l/knee_rotation_l/speed	/jointset/ankle_l/ankle_angle_l/speed	/jointset/subtalar_l/subtalar_angle_l/speed	/forceset/tau_hip_flexion_l	/forceset/tau_hip_adduction_l	/forceset/tau_hip_rotation_l	/forceset/tau_knee_flexion_l	/forceset/tau_ankle_angle_l	/forceset/tau_subtalar_angle_l	/forceset/tau_lumbar_extension	lambda_cid13_p0	lambda_cid13_p1	lambda_cid13_p2	lambda_cid13_p3	lambda_cid13_p4	lambda_cid13_p5	lambda_cid14_p0	/jointset/ground_pelvis/pelvis_tilt/accel	/jointset/ground_pelvis/pelvis_tx/accel	/jointset/ground_pelvis/pelvis_ty/accel	/jointset/hip_l/hip_flexion_l/accel	/jointset/hip_l/hip_adduction_l/accel	/jointset/hip_l/hip_rotation_l/accel	/jointset/back/lumbar_extension/accel	/jointset/patellofemoral_l/patellar_flexion_l/accel	/jointset/knee_l/knee_flexion_l/accel	/jointset/knee_l/knee_adduction_l/accel	/jointset/knee_l/knee_rotation_l/accel	/jointset/ankle_l/ankle_angle_l/accel	/jointset/subtalar_l/subtalar_angle_l/accel	gamma_cid13_p0	gamma_cid13_p1	gamma_cid13_p2	gamma_cid13_p3	gamma_cid13_p4	gamma_cid13_p5	gamma_cid14_p0
0	0.04677063772952678	0.1086142813465728	0.9028323914691884	0.1266917050730164	-0.3703177263479638	-0.2325711703191722	-0.2144974744115991	0.2051547269257209	0.2051547269256735	-0.1745318319128484	-0.1674864263306725	0.09024399430361882	0.07882022403869379	0	0	0	0	0	0	0	0	0	0	0	0	0	0.1265743691384975	-0.06927245202077088	-0.008639270513981705	-0.2295503357593399	0.1115122849301834	-0.06538561828294738	-0.06322648878358658	4.779910009073884	26.27569729542592	-3.003039479253383	16.23706849325554	-448.6289754666977	-66.68820790114803	-26.502007719389	-6.838404964313869	-2.671257379663615	-0.9787208371883463	15.95811960729463	-0.1478857292451075	2.864191492996591	-4.319651119047938	8.198834873866865	8.198834873868732	1.712135836984035	-0.5606910035420043	-0.2198570334499879	-0.2616362740890196	7.785817268732747e-09	3.030244431661673e-07	-2.907480527500635e-08	1.720499404067235e-08	6.179561045889766e-08	1.082173868567531e-07	3.446412319573637e-08
0.01	0.04643938399222081	0.1084824875784492	0.9027848027905472	0.1274693422817579	-0.370324803897158	-0.2324232472646202	-0.2147183990394312	0.2055531123924622	0.2055531123924267	-0.1744489099607123	-0.1675054436140126	0.09023135457327355	0.07880693243228372	-0.06598979814203312	-0.0262224363103459	-0.009491367287814585	0.1548340964457859	-0.001412145911441186	0.0294650930808082	-0.04385961138746758	0.07929649056000664	0.07929649056000458	0.0164859973510685	-0.003759617961119838	-0.002509380546083013	-0.00264758720007729	0.1236739130627476	-0.0742246821322968	-0.008166480554671757	-0.2273614573812798	0.1086161720247022	-0.05977305528871994	-0.06070039441945812	4.204855762484899	23.81715263972947	-2.472072602610995	15.65154205345363	-448.7949325269801	-71.50451557208906	-26.50181614229122	-6.440126789923022	-2.577285723666626	-0.9303770492266176	15.14205145171769	-0.1374172112795448	2.96975421095956	-4.370319018417791	7.737958836651183	7.737958836649942	1.602120605310461	-0.2770331552940744	-0.2636843536788451	-0.2647542125690771	-6.52637057756876e-09	4.198144900462643e-07	1.273074122516599e-08	3.336954296214535e-08	-1.389234973777601e-07	8.149999427743885e-08	4.834832797052508e-08
0.02	0.0454560603632647	0.1080925596538267	0.9026430939640985	0.1297745198125954	-0.370345910543279	-0.2319842560801371	-0.2153681603551058	0.2067330433027068	0.206733043302682	-0.1742040702500187	-0.1675607442695521	0.090194179879781	0.07876747809995294	-0.1304139783147489	-0.05162683129978411	-0.01882402956147311	0.3055080644314461	-0.002805819390287892	0.05821362597506131	-0.08576733756752739	0.1563090887033198	0.1563090887033198	0.03238355154778167	-0.007256674438135214	-0.004906992631874263	-0.005232545184270381	0.1207734569868603	-0.07917691224406039	-0.007693690595327851	-0.2251725790034714	0.1057200591190756	-0.05416049229479056	-0.05817430005522312	3.666413851355829	21.35685721603909	-1.946151353236831	15.13814089403741	-448.2404319538549	-76.19708829908751	-26.50108330116807	-6.525281370448416	-2.507649115483901	-0.946979834357075	15.12609391526962	-0.1441912427266235	2.720879455685536	-3.929274077565221	7.742056390528327	7.742056390531019	1.594447206112182	-0.5081787067215523	-0.1975033413939053	-0.2491104309133081	-2.083855842387027e-08	5.366045369263612e-07	5.453628772533834e-08	4.953409188361835e-08	-3.396426052144179e-07	5.478260169812462e-08	6.22325327453138e-08
0.03	0.04383591266464777	0.1074522209552861	0.9024085489098841	0.1335669005876873	-0.3703805718594869	-0.2312625222943353	-0.2164264133261297	0.2086721119895904	0.2086721119897277	-0.173802656062256	-0.1676507530516602	0.09013309799668585	0.07870266904093234	-0.1933258904056125	-0.07634694672692223	-0.02807971357191569	0.4522899893618412	-0.004101437253442774	0.0860090019576934	-0.1255464659514302	0.2311016339156883	0.2311016339156978	0.04781882409148194	-0.01068058742563667	-0.007353667495167168	-0.007713833412178827	0.1157659699298607	-0.07574636129310931	-0.006728590662316425	-0.2199687560674736	0.1005030449213598	-0.05479046455206277	-0.05436972195992396	2.026343043213341	21.75348871862784	-1.821908532257361	15.74919056690668	-447.3583891642084	-74.46761524225347	-26.49959422298518	-6.130692705691557	-2.440088537084887	-0.9141412672074943	14.35252396358459	-0.118583671022581	2.790255229997121	-3.951713612508652	7.28738886676849	7.287388866767865	1.506095891627597	-0.2498269142027706	-0.2748748405428976	-0.2454140790144211	-2.680576844523302e-08	6.186536604321726e-07	6.672971734911208e-08	6.085899930327621e-08	-4.591325051556084e-07	4.752143429387721e-08	7.480888047791366e-08
0.04	0.04159533652959375	0.1065675019463167	0.9020815912990016	0.1388067570482976	-0.3704274566768873	-0.2302665570365728	-0.2178723538597535	0.2113470131849017	0.2113470131848846	-0.173249283426245	-0.1677730668270586	0.09004622430860394	0.0786134918875762	-0.2544996655876793	-0.1005028933855553	-0.03730654089514441	0.5950032015585784	-0.005250519633102317	0.1130599203581386	-0.1633048500833075	0.3034755903351189	0.3034755903351158	0.06277524116032807	-0.01371767319070068	-0.01006535362834253	-0.01010616405149586	0.1107584828720981	-0.07231581034218806	-0.005763490731954118	-0.2147649331314561	0.09528603072355836	-0.05542043680935761	-0.05056514386513464	0.4191110633320536	22.14903147549319	-1.702817901305955	16.42710774206552	-445.8299609075537	-72.6214971126265	-26.49686117549246	-6.17765398868714	-2.394815361784724	-0.9412084969142065	14.31235136853824	-0.1148841460275892	2.57198793924799	-3.525125227159022	7.25833863194091	7.258338631939178	1.498676111141365	-0.4308132622344404	-0.2505055953725657	-0.2313189131956988	-3.260091706814342e-08	6.999864762395451e-07	7.831258786203224e-08	7.208412030021624e-08	-5.769475760680263e-07	4.066142617158995e-08	8.735826208593232e-08
0.05	0.0387507037183776	0.1054442330874413	0.9016621724083355	0.1454548428896875	-0.3704850631084671	-0.2290046344936349	-0.2196851518576869	0.2147346449432624	0.2147346449433183	-0.1725485148115765	-0.1679248818610533	0.08993149582588852	0.0785010630692983	-0.314147993794851	-0.1240332550903568	-0.04659398159239799	0.7339247412069583	-0.006249752880458175	0.1391946243756882	-0.1989466728029251	0.3736612432673322	0.3736612432673105	0.07727898442474258	-0.01658347871772632	-0.0128922271838393	-0.0123586294062368	0.1060366547475877	-0.07128898692859904	-0.004894891182947889	-0.2112487856613597	0.09244570924987834	-0.05448702091373274	-0.04702692854483504	-0.3063513792855493	21.77404547578671	-1.532663264242386	16.22352819670986	-444.056854022711	-72.44999408019329	-26.49233539031492	-5.816580275686152	-2.314488577374782	-0.9251398505728395	13.57866897117714	-0.08940597405853537	2.614727188109362	-3.53749928609535	6.840233338967393	6.840233338965481	1.411428237617119	-0.2051897174094471	-0.3005378038854657	-0.2191842732180429	-3.475268447002e-08	7.029714851903557e-07	7.501216217192551e-08	7.654089932768342e-08	-6.382833427333663e-07	2.888473867470992e-08	9.177985601390743e-08
0.06	0.03531795601723692	0.1040891922110026	0.9011493535118089	0.1534714668691047	-0.3705520544844948	-0.2274852617994592	-0.2218451257811771	0.218812444174089	0.2188124441740661	-0.1717056678034321	-0.1681035000539914	0.0897881466939689	0.07836671481215239	-0.372122643559944	-0.1468572968982153	-0.05598654206722792	0.8687108291828606	-0.007127508526562542	0.1645499505972767	-0.2327400351915854	0.4415090848037499	0.4415090848037173	0.09119091983017703	-0.01907830502368025	-0.01578948346926649	-0.01449005182518466	0.1013148266224957	-0.07026216351509007	-0.004026291635220086	-0.2077326381913818	0.08960538777610773	-0.05355360501820389	-0.04348871322489246	-1.003322527841679	21.39875796750511	-1.367815741244651	16.08310446774507	-441.7178250405453	-72.16963558960587	-26.48529028635614	-5.842918300269619	-2.253551382397911	-0.9622324524293809	13.48526103404292	-0.09058862577725575	2.416112380055578	-3.155433160966528	6.790776352781925	6.790776352781778	1.380314539345492	-0.356617418020481	-0.2645821413607427	-0.2071103260376685	-3.675104634680041e-08	7.026576391156269e-07	7.108507137853344e-08	8.07126955353833e-08	-6.972410334304083e-07	1.690103309889967e-08	9.585922730272281e-08
0.07000000000000001	0.03131290720175087	0.1025093851118087	0.9005418118941718	0.1628169207717957	-0.3706271045718822	-0.2257173031117424	-0.2243328546186659	0.2235580889363104	0.2235580889363308	-0.1707262438232502	-0.1683065057586986	0.08961572776320849	0.07821186848036644	-0.4286066826899885	-0.1689870465582857	-0.0655536772723134	0.9996918368763607	-0.007856618804389811	0.1889113959096525	-0.2644980696761233	0.5072293411947351	0.5072293411945368	0.1045926512236343	-0.02145351510909293	-0.01870949107477594	-0.01645391094412962	0.09600806196274556	-0.06865173407023789	-0.003038283983133347	-0.2040338961569524	0.08682550299314636	-0.05290019863722119	-0.03962004112967972	-1.689312225260721	21.14591613366715	-1.225641193006435	15.8862882931262	-439.2971419257126	-71.52704939953287	-26.47499905756791	-5.509071849257515	-2.175109112177246	-0.9588785889667913	12.80130199821744	-0.0603033628138066	2.4266146624055	-3.139839194575699	6.404052092676706	6.404052092651873	1.305048599176803	-0.1675802269655108	-0.3079649464378111	-0.187346465780118	-3.466396304495983e-08	6.586403225305607e-07	4.911371246822778e-08	8.029396721681517e-08	-7.010617580467857e-07	1.075517001217005e-08	9.598650059460786e-08
